<svg width="14" height="14" viewBox="0 0 14 14" fill="none" xmlns="http://www.w3.org/2000/svg">
<g clip-path="url(#clip0_719_8219)">
<path d="M2.13916 7.1856C2.13916 7.80951 2.26205 8.42732 2.50081 9.00374C2.73957 9.58016 3.08953 10.1039 3.5307 10.5451C3.97188 10.9863 4.49563 11.3362 5.07205 11.575C5.64847 11.8137 6.26628 11.9366 6.89019 11.9366C7.5141 11.9366 8.13191 11.8137 8.70833 11.575C9.28475 11.3362 9.8085 10.9863 10.2497 10.5451C10.6908 10.1039 11.0408 9.58016 11.2796 9.00374C11.5183 8.42732 11.6412 7.80951 11.6412 7.1856C11.6412 6.56169 11.5183 5.94388 11.2796 5.36746C11.0408 4.79104 10.6908 4.26729 10.2497 3.82611C9.8085 3.38494 9.28475 3.03498 8.70833 2.79622C8.13191 2.55746 7.5141 2.43457 6.89019 2.43457C6.26628 2.43457 5.64847 2.55746 5.07205 2.79622C4.49563 3.03498 3.97188 3.38494 3.5307 3.82611C3.08953 4.26729 2.73957 4.79104 2.50081 5.36746C2.26205 5.94388 2.13916 6.56169 2.13916 7.1856Z" stroke="white" stroke-width="0.791838" stroke-linecap="round" stroke-linejoin="round"/>
<path d="M6.89038 8.76928L4.77881 6.65771H9.00195L6.89038 8.76928Z" stroke="white" stroke-width="0.791838" stroke-linecap="round" stroke-linejoin="round"/>
</g>
<defs>
<clipPath id="clip0_719_8219">
<rect width="12.6694" height="12.6694" fill="white" transform="translate(0.555664 0.850952)"/>
</clipPath>
</defs>
</svg>
