<svg width="53" height="53" viewBox="0 0 53 53" fill="none" xmlns="http://www.w3.org/2000/svg">
<circle cx="26.5" cy="26.5" r="26.5" fill="white"/>
<path d="M14.0001 18.6668H38.0001C38.2431 18.6675 38.4813 18.7346 38.689 18.8606C38.8967 18.9867 39.0662 19.167 39.179 19.3822C39.2919 19.5974 39.344 19.8393 39.3296 20.0818C39.3152 20.3244 39.2349 20.5584 39.0974 20.7588L27.0974 38.0921C26.6001 38.8108 25.4028 38.8108 24.9041 38.0921L12.9041 20.7588C12.7652 20.5588 12.6838 20.3247 12.6686 20.0817C12.6534 19.8387 12.7052 19.5963 12.8181 19.3806C12.9311 19.165 13.101 18.9844 13.3094 18.8586C13.5178 18.7327 13.7567 18.6664 14.0001 18.6668Z" fill="#24B174" fill-opacity="0.5"/>
</svg>
