<svg width="32" height="32" viewBox="0 0 32 32" fill="none" xmlns="http://www.w3.org/2000/svg">
<path d="M4.00011 25.3333H28.0001C28.2431 25.3326 28.4813 25.2656 28.689 25.1395C28.8967 25.0135 29.0662 24.8331 29.179 24.6179C29.2919 24.4028 29.344 24.1609 29.3296 23.9183C29.3152 23.6757 29.2349 23.4417 29.0974 23.2414L17.0974 5.90802C16.6001 5.18935 15.4028 5.18935 14.9041 5.90802L2.90411 23.2414C2.76521 23.4413 2.68376 23.6754 2.6686 23.9184C2.65344 24.1614 2.70516 24.4039 2.81813 24.6195C2.93111 24.8351 3.10102 25.0157 3.3094 25.1415C3.51778 25.2674 3.75667 25.3337 4.00011 25.3333Z" fill="#24B174" fill-opacity="0.5"/>
</svg>
