<svg width="66" height="83" viewBox="0 0 66 83" fill="none" xmlns="http://www.w3.org/2000/svg">
<g opacity="0.7" filter="url(#filter0_d_740_11569)">
<path d="M16.0019 15.21L15.261 17.158L16.9155 20.3127L16.0871 21.435L13.5802 22.4381L10.2793 28.0013M12.6357 61.3261L15.3849 61.0383L18.5667 63.7952L21.9595 63.5299L25.2342 67.6434L26.7265 67.7494L28.0801 64.4708L29.5265 62.5487L31.2053 62.6679L31.8802 66.4282L36.0534 68.4118L38.4784 68.5839L39.8185 70.8728L41.2169 72.322L44.9477 72.5869L45.9741 71.3098L44.397 68.5579L45.6405 66.4999L44.642 64.017L44.4848 63.1048L44.8012 58.5713L47.1812 57.171L46.6133 55.6222L45.0571 52.5021L46.0481 49.2161L47.1034 46.5403L47.8349 38.6124L50.7191 35.8054L52.7382 31.0763L53.7208 28.1124L55.9153 23.0201L47.813 10.3287" stroke="white" stroke-width="1.21185" stroke-linecap="round" stroke-linejoin="round" stroke-dasharray="0.93 1.86"/>
</g>
<defs>
<filter id="filter0_d_740_11569" x="0.608588" y="0.657966" width="64.9772" height="81.5996" filterUnits="userSpaceOnUse" color-interpolation-filters="sRGB">
<feFlood flood-opacity="0" result="BackgroundImageFix"/>
<feColorMatrix in="SourceAlpha" type="matrix" values="0 0 0 0 0 0 0 0 0 0 0 0 0 0 0 0 0 0 127 0" result="hardAlpha"/>
<feOffset/>
<feGaussianBlur stdDeviation="4.53238"/>
<feColorMatrix type="matrix" values="0 0 0 0 1 0 0 0 0 1 0 0 0 0 1 0 0 0 1 0"/>
<feBlend mode="normal" in2="BackgroundImageFix" result="effect1_dropShadow_740_11569"/>
<feBlend mode="normal" in="SourceGraphic" in2="effect1_dropShadow_740_11569" result="shape"/>
</filter>
</defs>
</svg>
