<svg width="36" height="35" viewBox="0 0 36 35" fill="none" xmlns="http://www.w3.org/2000/svg">
<path d="M33.1403 17.62C33.1403 26.1237 26.2467 33.0173 17.7431 33.0173C9.23939 33.0173 2.3458 26.1237 2.3458 17.62C2.3458 9.11634 9.23939 2.22275 17.7431 2.22275C26.2467 2.22275 33.1403 9.11634 33.1403 17.62Z" fill="white" stroke="#F24E1E" stroke-width="3.84932"/>
<path d="M19.3622 6.02609C19.2584 5.93979 19.1354 5.87971 19.0035 5.85092C18.8716 5.82213 18.7347 5.82546 18.6044 5.86065C18.4741 5.89584 18.3541 5.96184 18.2546 6.0531C18.1552 6.14436 18.0791 6.25819 18.0328 6.38501L15.7172 12.7435L13.1743 10.2794C13.0889 10.1966 12.9869 10.1328 12.875 10.0923C12.7632 10.0517 12.644 10.0353 12.5254 10.0442C12.4067 10.053 12.2913 10.0869 12.1867 10.1436C12.0821 10.2003 11.9907 10.2785 11.9186 10.3731C9.63876 13.3602 8.48096 16.3653 8.48096 19.304C8.48096 21.7605 9.45682 24.1165 11.1939 25.8535C12.9309 27.5905 15.2868 28.5664 17.7434 28.5664C20.1999 28.5664 22.5558 27.5905 24.2929 25.8535C26.0299 24.1165 27.0058 21.7605 27.0058 19.304C27.0058 13.0466 21.6599 7.93647 19.3622 6.02609ZM23.6261 20.2871C23.4077 21.5066 22.821 22.6301 21.9448 23.5061C21.0686 24.3821 19.945 24.9686 18.7254 25.1867C18.6792 25.1946 18.6323 25.1984 18.5854 25.1982C18.3742 25.1982 18.1707 25.1188 18.0153 24.9757C17.8599 24.8326 17.764 24.6364 17.7465 24.4259C17.729 24.2154 17.7913 24.006 17.9209 23.8393C18.0506 23.6726 18.2382 23.5606 18.4465 23.5257C20.1905 23.2321 21.6704 21.7522 21.9662 20.005C22.0036 19.7847 22.127 19.5884 22.3092 19.4591C22.4913 19.3298 22.7174 19.2781 22.9377 19.3156C23.1579 19.353 23.3543 19.4763 23.4836 19.6585C23.6129 19.8407 23.6645 20.0668 23.6271 20.2871H23.6261Z" fill="#F24E1E"/>
</svg>
