<svg width="93" height="72" viewBox="0 0 93 72" fill="none" xmlns="http://www.w3.org/2000/svg">
<g opacity="0.7" filter="url(#filter0_d_740_11563)">
<path d="M21.8254 61.7768L24.271 50.9462L26.0244 49.1137L22.1314 42.4194L24.961 40.5711L18.5244 32.0093L11.3156 29.2905L10.1411 23.5926L13.437 18.4799L23.7078 19.1267L26.5765 18.1668L27.201 10.0493L41.4799 10.0209L45.2296 12.3227L48.5645 12.5595L53.864 16.6678L57.5376 14.7234L68.2841 15.4865L72.8655 20.1521L79.4843 20.7594L79.2227 25.5598L82.8488 25.9371L82.5496 31.2263L74.8159 36.7313L65.2113 41.4035L65.4386 39.847L60.9665 42.9567L60.3185 52.2405" stroke="white" stroke-width="1.21185" stroke-linecap="round" stroke-linejoin="round" stroke-dasharray="0.93 1.86"/>
</g>
<defs>
<filter id="filter0_d_740_11563" x="0.470405" y="0.350226" width="92.0489" height="71.0973" filterUnits="userSpaceOnUse" color-interpolation-filters="sRGB">
<feFlood flood-opacity="0" result="BackgroundImageFix"/>
<feColorMatrix in="SourceAlpha" type="matrix" values="0 0 0 0 0 0 0 0 0 0 0 0 0 0 0 0 0 0 127 0" result="hardAlpha"/>
<feOffset/>
<feGaussianBlur stdDeviation="4.53238"/>
<feColorMatrix type="matrix" values="0 0 0 0 1 0 0 0 0 1 0 0 0 0 1 0 0 0 1 0"/>
<feBlend mode="normal" in2="BackgroundImageFix" result="effect1_dropShadow_740_11563"/>
<feBlend mode="normal" in="SourceGraphic" in2="effect1_dropShadow_740_11563" result="shape"/>
</filter>
</defs>
</svg>
