<svg width="36" height="36" viewBox="0 0 36 36" fill="none" xmlns="http://www.w3.org/2000/svg">
<path d="M33.1403 18.0412C33.1403 26.5448 26.2467 33.4384 17.7431 33.4384C9.23939 33.4384 2.3458 26.5448 2.3458 18.0412C2.3458 9.53749 9.23939 2.6439 17.7431 2.6439C26.2467 2.6439 33.1403 9.53749 33.1403 18.0412Z" fill="white" stroke="#319966" stroke-width="3.84932"/>
<g clip-path="url(#clip0_853_797)">
<path d="M11.969 21.4093L9.08203 24.2385V16.1165H11.969M16.7807 19.6386L15.2698 18.3491L13.8937 19.6194V12.2672H16.7807M21.5923 18.0411L18.7053 20.9281V8.41785H21.5923M24.2964 17.8583L22.5546 16.1165H27.3663V20.9281L25.6437 19.2056L18.7053 26.0862L15.366 23.18L11.7284 26.7021H9.08203L15.3083 20.6009L18.7053 23.4687" fill="#319966"/>
</g>
<defs>
<clipPath id="clip0_853_797">
<rect width="23.0959" height="23.0959" fill="white" transform="translate(6.19507 3.6062)"/>
</clipPath>
</defs>
</svg>
