<svg width="26" height="25" viewBox="0 0 26 25" fill="none" xmlns="http://www.w3.org/2000/svg">
<g clip-path="url(#clip0_826_7559)">
<path d="M8.66675 7.48523C8.66675 8.5461 9.12329 9.56351 9.93595 10.3137C10.7486 11.0638 11.8508 11.4852 13.0001 11.4852C14.1494 11.4852 15.2516 11.0638 16.0642 10.3137C16.8769 9.56351 17.3334 8.5461 17.3334 7.48523C17.3334 6.42436 16.8769 5.40695 16.0642 4.6568C15.2516 3.90666 14.1494 3.48523 13.0001 3.48523C11.8508 3.48523 10.7486 3.90666 9.93595 4.6568C9.12329 5.40695 8.66675 6.42436 8.66675 7.48523Z" stroke="white" stroke-width="1.5" stroke-linecap="round" stroke-linejoin="round"/>
<path d="M6.5 21.4852V19.4852C6.5 18.4244 6.95655 17.4069 7.7692 16.6568C8.58186 15.9067 9.68406 15.4852 10.8333 15.4852H15.1667C16.3159 15.4852 17.4181 15.9067 18.2308 16.6568C19.0435 17.4069 19.5 18.4244 19.5 19.4852V21.4852" stroke="white" stroke-width="1.5" stroke-linecap="round" stroke-linejoin="round"/>
</g>
<defs>
<clipPath id="clip0_826_7559">
<rect width="26" height="24" fill="white" transform="translate(0 0.485229)"/>
</clipPath>
</defs>
</svg>
