<svg width="20" height="18" viewBox="0 0 20 18" fill="none" xmlns="http://www.w3.org/2000/svg">
<g clip-path="url(#clip0_719_8165)">
<path d="M6.81104 5.24301C6.81104 5.99565 7.13494 6.71747 7.71149 7.24967C8.28804 7.78187 9.07001 8.08086 9.88538 8.08086C10.7007 8.08086 11.4827 7.78187 12.0593 7.24967C12.6358 6.71747 12.9597 5.99565 12.9597 5.24301C12.9597 4.49036 12.6358 3.76854 12.0593 3.23634C11.4827 2.70414 10.7007 2.40515 9.88538 2.40515C9.07001 2.40515 8.28804 2.70414 7.71149 3.23634C7.13494 3.76854 6.81104 4.49036 6.81104 5.24301Z" stroke="white" stroke-width="1.0642" stroke-linecap="round" stroke-linejoin="round"/>
<path d="M5.27393 15.1755V13.7566C5.27393 13.0039 5.59783 12.2821 6.17438 11.7499C6.75093 11.2177 7.5329 10.9187 8.34827 10.9187H11.4226C12.238 10.9187 13.0199 11.2177 13.5965 11.7499C14.173 12.2821 14.497 13.0039 14.497 13.7566V15.1755" stroke="white" stroke-width="1.0642" stroke-linecap="round" stroke-linejoin="round"/>
</g>
<defs>
<clipPath id="clip0_719_8165">
<rect width="18.4461" height="17.0271" fill="white" transform="translate(0.662598 0.276733)"/>
</clipPath>
</defs>
</svg>
