<svg width="25" height="23" viewBox="0 0 25 23" fill="none" xmlns="http://www.w3.org/2000/svg">
<path d="M1.04175 13.4178C0.765463 13.4178 0.500489 13.5188 0.305123 13.6985C0.109756 13.8782 0 14.122 0 14.3762V22.0416C0 22.2958 0.109756 22.5395 0.305123 22.7193C0.500489 22.899 0.765463 23 1.04175 23H9.37578C9.65207 23 9.91705 22.899 10.1124 22.7193C10.3078 22.5395 10.4175 22.2958 10.4175 22.0416V14.3762C10.4175 14.122 10.3078 13.8782 10.1124 13.6985C9.91705 13.5188 9.65207 13.4178 9.37578 13.4178H1.04175ZM15.6263 13.4178C15.35 13.4178 15.085 13.5188 14.8897 13.6985C14.6943 13.8782 14.5845 14.122 14.5845 14.3762V22.0416C14.5845 22.2958 14.6943 22.5395 14.8897 22.7193C15.085 22.899 15.35 23 15.6263 23H23.9582C24.2345 23 24.4995 22.899 24.6949 22.7193C24.8902 22.5395 25 22.2958 25 22.0416V14.3762C25 14.122 24.8902 13.8782 24.6949 13.6985C24.4995 13.5188 24.2345 13.4178 23.9582 13.4178H15.6263ZM1.04175 0C0.765463 0 0.500489 0.100973 0.305123 0.280712C0.109756 0.460449 0 0.704226 0 0.958412V8.62572C0 8.87991 0.109756 9.12368 0.305123 9.30342C0.500489 9.48316 0.765463 9.58413 1.04175 9.58413H9.37578C9.65207 9.58413 9.91705 9.48316 10.1124 9.30342C10.3078 9.12368 10.4175 8.87991 10.4175 8.62572V0.958412C10.4175 0.704226 10.3078 0.460449 10.1124 0.280712C9.91705 0.100973 9.65207 0 9.37578 0H1.04175ZM15.6263 0C15.35 0 15.085 0.100973 14.8897 0.280712C14.6943 0.460449 14.5845 0.704226 14.5845 0.958412V8.62572C14.5845 8.87991 14.6943 9.12368 14.8897 9.30342C15.085 9.48316 15.35 9.58413 15.6263 9.58413H23.9582C24.2345 9.58413 24.4995 9.48316 24.6949 9.30342C24.8902 9.12368 25 8.87991 25 8.62572V0.958412C25 0.704226 24.8902 0.460449 24.6949 0.280712C24.4995 0.100973 24.2345 0 23.9582 0H15.6263Z" fill="white"/>
</svg>
