<svg width="19" height="17" viewBox="0 0 19 17" fill="none" xmlns="http://www.w3.org/2000/svg">
<path d="M1.38118 10.1613C1.18516 10.1613 0.997171 10.2329 0.858565 10.3604C0.719958 10.488 0.64209 10.6609 0.64209 10.8412V16.2795C0.64209 16.4599 0.719958 16.6328 0.858565 16.7603C0.997171 16.8878 1.18516 16.9595 1.38118 16.9595H7.29391C7.48992 16.9595 7.67792 16.8878 7.81652 16.7603C7.95513 16.6328 8.033 16.4599 8.033 16.2795V10.8412C8.033 10.6609 7.95513 10.488 7.81652 10.3604C7.67792 10.2329 7.48992 10.1613 7.29391 10.1613H1.38118ZM11.7284 10.1613C11.5324 10.1613 11.3444 10.2329 11.2058 10.3604C11.0672 10.488 10.9894 10.6609 10.9894 10.8412V16.2795C10.9894 16.4599 11.0672 16.6328 11.2058 16.7603C11.3444 16.8878 11.5324 16.9595 11.7284 16.9595H17.6397C17.8357 16.9595 18.0237 16.8878 18.1623 16.7603C18.3009 16.6328 18.3788 16.4599 18.3788 16.2795V10.8412C18.3788 10.6609 18.3009 10.488 18.1623 10.3604C18.0237 10.2329 17.8357 10.1613 17.6397 10.1613H11.7284ZM1.38118 0.641905C1.18516 0.641905 0.997171 0.713541 0.858565 0.841059C0.719958 0.968575 0.64209 1.14152 0.64209 1.32186V6.7615C0.64209 6.94184 0.719958 7.11479 0.858565 7.2423C0.997171 7.36982 1.18516 7.44146 1.38118 7.44146H7.29391C7.48992 7.44146 7.67792 7.36982 7.81652 7.2423C7.95513 7.11479 8.033 6.94184 8.033 6.7615V1.32186C8.033 1.14152 7.95513 0.968575 7.81652 0.841059C7.67792 0.713541 7.48992 0.641905 7.29391 0.641905H1.38118ZM11.7284 0.641905C11.5324 0.641905 11.3444 0.713541 11.2058 0.841059C11.0672 0.968575 10.9894 1.14152 10.9894 1.32186V6.7615C10.9894 6.94184 11.0672 7.11479 11.2058 7.2423C11.3444 7.36982 11.5324 7.44146 11.7284 7.44146H17.6397C17.8357 7.44146 18.0237 7.36982 18.1623 7.2423C18.3009 7.11479 18.3788 6.94184 18.3788 6.7615V1.32186C18.3788 1.14152 18.3009 0.968575 18.1623 0.841059C18.0237 0.713541 17.8357 0.641905 17.6397 0.641905H11.7284Z" fill="white"/>
</svg>
