<svg width="36" height="36" viewBox="0 0 36 36" fill="none" xmlns="http://www.w3.org/2000/svg">
<path d="M36 18C36 8.05887 27.9411 0 18 0C8.05887 0 0 8.05887 0 18C0 27.9411 8.05887 36 18 36C27.9411 36 36 27.9411 36 18Z" fill="#FF0000"/>
<path d="M17.9927 9.50671C17.9927 9.50671 10.4064 9.50672 8.50236 10.0015C7.48287 10.2863 6.64339 11.1258 6.35854 12.1603C5.86378 14.0644 5.86377 18.0075 5.86377 18.0075C5.86377 18.0075 5.86378 21.9656 6.35854 23.8397C6.64339 24.8742 7.46788 25.6986 8.50236 25.9835C10.4214 26.4933 17.9927 26.4933 17.9927 26.4933C17.9927 26.4933 25.594 26.4933 27.498 25.9985C28.5325 25.7137 29.3569 24.9042 29.6268 23.8547C30.1366 21.9656 30.1366 18.0225 30.1366 18.0225C30.1366 18.0225 30.1516 14.0644 29.6268 12.1603C29.3569 11.1258 28.5325 10.3013 27.498 10.0315C25.594 9.50674 17.9927 9.50671 17.9927 9.50671ZM15.5788 14.3644L21.8908 18.0075L15.5788 21.6356V14.3644Z" fill="white"/>
</svg>
